<svg width="13" height="13" viewBox="0 0 13 13" fill="none" xmlns="http://www.w3.org/2000/svg">
<path d="M5.27778 4.05556C5.27778 7.47778 5.27778 8.74074 5.27778 8.94444M7.72222 8.94444V4.05556M1.61111 5.27778V5.27778C1.22641 6.04718 1.22641 6.95282 1.61111 7.72222V7.72222L1.91667 8.33333C2.11501 8.73001 2.43665 9.05166 2.83333 9.25V9.25C3.23001 9.44834 3.55166 9.76999 3.75 10.1667V10.1667C3.94834 10.5633 4.26999 10.885 4.66667 11.0833L5.27778 11.3889V11.3889C6.04718 11.7736 6.95282 11.7736 7.72222 11.3889V11.3889L8.33333 11.0833C8.73001 10.885 9.05166 10.5633 9.25 10.1667V10.1667C9.44834 9.76999 9.76999 9.44834 10.1667 9.25V9.25C10.5633 9.05166 10.885 8.73001 11.0833 8.33333L11.3889 7.72222V7.72222C11.7736 6.95282 11.7736 6.04718 11.3889 5.27778V5.27778L11.0833 4.66667C10.885 4.26999 10.5633 3.94834 10.1667 3.75V3.75C9.76999 3.55166 9.44834 3.23001 9.25 2.83333V2.83333C9.05166 2.43665 8.73001 2.11501 8.33333 1.91667L7.72222 1.61111V1.61111C6.95282 1.22641 6.04718 1.22641 5.27778 1.61111V1.61111L4.66667 1.91667C4.26999 2.11501 3.94834 2.43665 3.75 2.83333V2.83333C3.55166 3.23001 3.23001 3.55166 2.83333 3.75V3.75C2.43665 3.94834 2.11501 4.26999 1.91667 4.66667L1.61111 5.27778Z" stroke="black"/>
</svg>
